<svg xmlns="http://www.w3.org/2000/svg" version="1.1" xmlns:xlink="http://www.w3.org/1999/xlink" xmlns:svgjs="http://svgjs.com/svgjs" width="512" height="512" x="0" y="0" viewBox="0 0 32 32" style="enable-background:new 0 0 512 512" xml:space="preserve" class=""><g><path d="M27 26H9a3 3 0 0 1-3-3V5a3 3 0 0 1 3-3h18a3 3 0 0 1 3 3v18a3 3 0 0 1-3 3ZM9 4a1 1 0 0 0-1 1v18a1 1 0 0 0 1 1h18a1 1 0 0 0 1-1V5a1 1 0 0 0-1-1Zm17 25a1 1 0 0 0-1-1H5a1 1 0 0 1-1-1V7a1 1 0 0 0-2 0v20a3 3 0 0 0 3 3h20a1 1 0 0 0 1-1ZM14 19a1 1 0 0 1-.53-.15A1 1 0 0 1 13 18v-8a1 1 0 0 1 1.45-.89l8 4a1 1 0 0 1 0 1.78l-8 4A1 1 0 0 1 14 19Zm1-7.38v4.76L19.76 14Z" data-name="Layer 17" fill="#000000" data-original="#000000" class=""></path></g></svg>