<svg xmlns="http://www.w3.org/2000/svg" version="1.1" xmlns:xlink="http://www.w3.org/1999/xlink" xmlns:svgjs="http://svgjs.com/svgjs" width="512" height="512" x="0" y="0" viewBox="0 0 32 32" style="enable-background:new 0 0 512 512" xml:space="preserve" class=""><circle r="16" cx="16" cy="16" fill="#a4a8ab" shape="circle"></circle><g transform="matrix(0.7,0,0,0.7,4.799999713897705,4.800000000000001)"><path d="M27 15a1 1 0 0 0-2 0 9 9 0 0 1-18 0 1 1 0 0 0-2 0 11 11 0 0 0 10 11v3a1 1 0 0 0 2 0v-3a11 11 0 0 0 10-11z" fill="#000000" data-original="#000000"></path><path d="M16 22a7 7 0 0 0 7-7V9A7 7 0 0 0 9 9v6a7 7 0 0 0 7 7z" fill="#000000" data-original="#000000"></path></g></svg>