<svg xmlns="http://www.w3.org/2000/svg" version="1.1" xmlns:xlink="http://www.w3.org/1999/xlink" xmlns:svgjs="http://svgjs.com/svgjs" width="512" height="512" x="0" y="0" viewBox="0 0 512.002 512.002" style="enable-background:new 0 0 512 512" xml:space="preserve" class=""><g><path d="M50 56.001h412.002c22 0 40 18 40 40v320c0 22-18 40-40 40H50c-22 0-40-18-40-40v-320c0-22 18-40 40-40zM15 146.001h482.001M50.455 56.755l51.092 88.492M170.455 56.755l51.091 88.492M290.455 56.755l51.091 88.492M410.455 56.755l51.091 88.492" style="fill-rule:evenodd;clip-rule:evenodd;stroke-width:20;stroke-linecap:round;stroke-linejoin:round;stroke-miterlimit:22.9256;" fill-rule="evenodd" clip-rule="evenodd" fill="none" stroke="#000000" stroke-width="20" stroke-linecap="round" stroke-linejoin="round" stroke-miterlimit="22.9256" data-original="#000000" class=""></path><path d="m322.91 318.242-104.196 60.097c-9.445 5.465-21.537 2.246-27.007-7.19-1.745-3.01-2.712-6.411-2.708-9.895V240.792c0-10.93 8.87-19.791 19.811-19.791 4.106 0 7.921 1.248 11.084 3.385l103.248 59.551c9.445 5.465 12.667 17.545 7.197 26.98a19.655 19.655 0 0 1-7.429 7.325z" style="fill-rule:evenodd;clip-rule:evenodd;stroke-width:20;stroke-linecap:round;stroke-linejoin:round;stroke-miterlimit:22.9256;" fill-rule="evenodd" clip-rule="evenodd" fill="none" stroke="#000000" stroke-width="20" stroke-linecap="round" stroke-linejoin="round" stroke-miterlimit="22.9256" data-original="#000000" class=""></path></g></svg>