<svg xmlns="http://www.w3.org/2000/svg" version="1.1" xmlns:xlink="http://www.w3.org/1999/xlink" xmlns:svgjs="http://svgjs.com/svgjs" width="512" height="512" x="0" y="0" viewBox="0 0 32 32" style="enable-background:new 0 0 512 512" xml:space="preserve" class=""><g><path d="M27 30H5a3 3 0 0 1-3-3V13a3 3 0 0 1 3-3h22a3 3 0 0 1 3 3v14a3 3 0 0 1-3 3zM5 12a1 1 0 0 0-1 1v14a1 1 0 0 0 1 1h22a1 1 0 0 0 1-1V13a1 1 0 0 0-1-1zm21-9a1 1 0 0 0-1-1H7a1 1 0 0 0 0 2h18a1 1 0 0 0 1-1zm2 4a1 1 0 0 0-1-1H5a1 1 0 0 0 0 2h22a1 1 0 0 0 1-1zM12 25a1 1 0 0 1-.53-.15A1 1 0 0 1 11 24v-8a1 1 0 0 1 1.45-.89l8 4a1 1 0 0 1 0 1.78l-8 4A1 1 0 0 1 12 25zm1-7.38v4.76L17.76 20z" data-name="Layer 15" fill="#000000" data-original="#000000" class=""></path></g></svg>