<svg xmlns="http://www.w3.org/2000/svg" version="1.1" xmlns:xlink="http://www.w3.org/1999/xlink" xmlns:svgjs="http://svgjs.com/svgjs" width="512" height="512" x="0" y="0" viewBox="0 0 24 24" style="enable-background:new 0 0 512 512" xml:space="preserve" class=""><g><path d="M21.789 6.341a1.508 1.508 0 0 0-1.528-.024L16.5 9.024V8A2.503 2.503 0 0 0 14 5.5H4A2.503 2.503 0 0 0 1.5 8v8A2.503 2.503 0 0 0 4 18.5h10a2.503 2.503 0 0 0 2.5-2.5v-1.026l3.83 2.75a1.5 1.5 0 0 0 2.17-1.343V7.617a1.491 1.491 0 0 0-.711-1.276ZM15.5 16a1.502 1.502 0 0 1-1.5 1.5H4A1.502 1.502 0 0 1 2.5 16V8A1.502 1.502 0 0 1 4 6.5h10A1.502 1.502 0 0 1 15.5 8Zm6 .381a.517.517 0 0 1-.655.49L16.5 13.743v-3.488l4.276-3.086a.5.5 0 0 1 .724.447Z" fill="#000000" data-original="#000000"></path></g></svg>